# xmcd
#
# Track frame offsets: 
#        150
#        14384
#        23453
#        33036
#        44959
#        56284
#        65348
#        77723
#        90024
#        100843
#
# Disc length: 1447 seconds
#
# Revision: 0
# Processed by: cddbd v1.5.2PL0 Copyright (c) Steve Scherf et al.
# Submitted via: ExactAudioCopy v1.0b1
#
DISCID=6705a50a
DTITLE=Country Gazette - Don't Give Up Your Day Job
DYEAR=1973
DGENRE=Country
TTITLE0=Huckleberry Hornpipe
TTITLE1=The Fallen Eagle
TTITLE2=Deputy Dalton
TTITLE3=Teach Your Children
TTITLE4=My Oklahoma
TTITLE5=Down The Road
TTITLE6=Winterwood
TTITLE7=Honky Cat
TTITLE8=Snowball
TTITLE9=Lonesome Blues
EXTD=
EXTT0=
EXTT1=
EXTT2=
EXTT3=
EXTT4=
EXTT5=
EXTT6=
EXTT7=
EXTT8=
EXTT9=
PLAYORDER=
